<?xml version="1.0" encoding="utf-8"?>
<!-- Generator: Adobe Illustrator 25.2.1, SVG Export Plug-In . SVG Version: 6.00 Build 0)  -->
<svg version="1.1" id="Слой_1" xmlns="http://www.w3.org/2000/svg" xmlns:xlink="http://www.w3.org/1999/xlink" x="0px" y="0px"
	 viewBox="0 0 512 512" style="enable-background:new 0 0 512 512;" xml:space="preserve">
<style type="text/css">
	.st0{fill:#333333;stroke:#333333;stroke-miterlimit:10;}
</style>
<g>
	<path class="st0" d="M133.35,185c-20.85-7.56-29.44-59.94-12.57-96.41c20.68-44.71,79.38-65.02,126.95-58.68
		c65.85,8.77,123.48,70.36,115.57,113.77c-8.16,44.78-80.61,40.22-118.56,103.59c-25.64,42.82-21.74,93.63-12.57,133.53
		c-12.97-0.8-25.95-1.6-38.92-2.4c-12.04-42.49-18.32-94.91,7.78-136.53c34.01-54.23,98.83-51.56,107.78-95.81
		c6.69-33.07-20.52-78.96-62.87-89.82c-38.3-9.82-82.53,10.66-91.62,38.32c-9.68,29.47,23.69,57.46,8.98,79.04
		C156.77,183.19,142.88,188.46,133.35,185z"/>
	<path class="st0" d="M194.43,401.77c11.49-6.53,25.87-6.31,37.13,0c8.43,4.73,20.58,15.93,18.56,28.14
		c-2.41,14.63-23.64,21.54-38.32,20.96c-13.36-0.53-33.36-7.72-35.33-22.16C174.81,416.57,186.83,406.08,194.43,401.77z"/>
</g>
</svg>
