<?xml version="1.0" encoding="utf-8"?>
<!-- Generator: Adobe Illustrator 25.2.1, SVG Export Plug-In . SVG Version: 6.00 Build 0)  -->
<svg version="1.1" id="Слой_1" xmlns="http://www.w3.org/2000/svg" xmlns:xlink="http://www.w3.org/1999/xlink" x="0px" y="0px"
	 viewBox="0 0 512 512" style="enable-background:new 0 0 512 512;" xml:space="preserve">
<style type="text/css">
	.st0{fill:none;stroke:#000000;stroke-width:3;stroke-miterlimit:10;}
</style>
<path class="st0" d="M248.92,305.96c-2.8-17.95-4.78-39.59-4.19-64.07c0.7-29.13,4.85-54.26,9.58-74.25
	c-0.2-0.41-3.58-7.13-11.1-7.93c-5.33-0.57-10.58,2.06-13.45,6.73c1.68,23.06,2.48,48.31,1.8,75.45
	c-0.84,33.58-3.81,64.29-7.78,91.62c1.04,1.59,2.76,3.86,5.39,5.99c7.17,5.81,15.38,5.97,19.16,5.99
	c4.87,0.03,12.45,0.07,17.96-5.39c2.33-2.31,3.55-4.86,4.19-6.59c-6.15-25.02-11.88-59.78-10.18-101.2
	c1.39-33.83,7.35-62.49,13.61-84.39c-0.57-2.66-1.89-6.91-5.22-10.82c-5.9-6.91-14.15-8.09-20.36-8.98
	c-6.4-0.92-23.76-3.38-33.53,7.78c-3.46,3.95-4.84,8.36-5.46,11.24c3.28,26.84,5.44,56.79,5.46,89.36
	c0.02,50.5-5.13,95.3-11.98,132.93c0.49,2.19,1.46,5.28,3.59,8.38c8.34,12.14,26.19,12.38,40.12,12.57
	c13.89,0.19,31.58,0.44,43.11-11.98c3.06-3.29,4.9-6.63,5.99-8.98c-9.51-22.62-20.33-55.81-23.35-97.01
	c-2.02-27.59-0.02-51.64,2.99-70.66"/>
</svg>
