<?xml version="1.0" encoding="utf-8"?>
<!-- Generator: Adobe Illustrator 25.2.1, SVG Export Plug-In . SVG Version: 6.00 Build 0)  -->
<svg version="1.1" id="Слой_1" xmlns="http://www.w3.org/2000/svg" xmlns:xlink="http://www.w3.org/1999/xlink" x="0px" y="0px"
	 viewBox="0 0 512 512" style="enable-background:new 0 0 512 512;" xml:space="preserve">
<style type="text/css">
	.st0{fill:none;stroke:#000000;stroke-width:5;stroke-miterlimit:10;}
</style>
<path class="st0" d="M366.02,170.55c-4.05,52.43-52,81.02-56.89,83.83c0.2,10.38,0.4,20.76,0.6,31.14
	c17.86,3.71,60.18,15.06,97.6,52.1c48,47.51,55.36,105.06,56.89,121.56c-138.52,0-277.05,0-415.57,0
	c1.8-15.24,11.23-80.26,68.26-127.54c39.41-32.67,81.56-40.31,100-42.51c-0.44-8.62-0.89-17.25-1.33-25.87
	c-43.37-19.12-71.45-59.04-71.13-100.48c0.47-61.04,62.43-112.52,125.05-104.69C324.11,64.9,370.25,115.7,366.02,170.55z"/>
</svg>
