<?xml version="1.0" encoding="utf-8"?>
<!-- Generator: Adobe Illustrator 25.2.1, SVG Export Plug-In . SVG Version: 6.00 Build 0)  -->
<svg version="1.1" id="Слой_1" xmlns="http://www.w3.org/2000/svg" xmlns:xlink="http://www.w3.org/1999/xlink" x="0px" y="0px"
	 viewBox="0 0 512 512" style="enable-background:new 0 0 512 512;" xml:space="preserve">
<style type="text/css">
	.st0{fill:none;stroke:#000000;stroke-width:3;stroke-miterlimit:10;}
</style>
<path class="st0" d="M201.29,225.08c-2.48,0-4.96,0-7.44,0c0.38-19.07,0.76-38.14,1.14-57.21c2.29-3.81,4.58-7.63,6.87-11.44
	c-2.67-4.2-5.34-8.39-8.01-12.59c-8.01-26.7-16.02-53.4-24.03-80.1c-7.44,27.27-14.88,54.54-22.31,81.82
	c-2.67,4-5.34,8.01-8.01,12.01c2.48,3.81,4.96,7.63,7.44,11.44c0.38,9.54,0.76,19.07,1.14,28.61c-3.05-8.77-6.1-17.55-9.15-26.32
	c-4.04,9.97-8.09,19.94-12.13,29.9c1.76,1.86,3.51,3.71,5.27,5.57c-0.19,15.07-0.38,30.13-0.57,45.2c4.96,0.19,9.92,0.38,14.88,0.57
	c0.76,8.01,1.53,16.02,2.29,24.03c-2.29-2.67-4.58-5.34-6.87-8.01c-1.53,1.33-3.05,2.67-4.58,4c-3.24-0.38-6.48-0.76-9.73-1.14
	c-0.19,2.1-0.38,4.2-0.57,6.29c2.29,0.19,4.58,0.38,6.87,0.57c-4,5.72-8.01,11.44-12.01,17.16c0.19,39.1,0.38,78.19,0.57,117.29
	c85.63,0.19,171.26,0.38,256.89,0.57c0.19-39.1,0.38-78.19,0.57-117.29c-3.81-6.48-7.63-12.97-11.44-19.45
	c1.91-0.19,3.81-0.38,5.72-0.57c-0.43-1.51-0.86-3.02-1.3-4.53c-4.15-0.78-8.29-1.55-12.44-2.33c-2.9,4.86-5.79,9.72-8.69,14.58
	c-0.16-37.85-0.31-75.71-0.47-113.56c2.67-4.2,5.34-8.39,8.01-12.59c-1.91-3.62-3.81-7.25-5.72-10.87
	c-8.58-27.27-17.16-54.54-25.75-81.82c-7.44,27.08-14.88,54.16-22.31,81.24c-2.86,3.81-5.72,7.63-8.58,11.44
	c2.86,4.77,5.72,9.54,8.58,14.3c-0.19,18.31-0.38,36.62-0.57,54.93c-2.29-0.19-4.58-0.38-6.87-0.57
	c0.19-13.92,0.38-27.84,0.57-41.77c-2.86-10.11-5.72-20.22-8.58-30.32c-1.33,6.87-2.67,13.73-4,20.6
	c-12.21-17.74-24.41-35.47-36.62-53.21c-11.63,17.55-23.27,35.09-34.9,52.64c-2.29-6.87-4.58-13.73-6.87-20.6
	c-2.86,9.73-5.72,19.45-8.58,29.18C199.76,196.85,200.52,210.96,201.29,225.08z"/>
</svg>
