<?xml version="1.0" encoding="utf-8"?>
<!-- Generator: Adobe Illustrator 25.2.1, SVG Export Plug-In . SVG Version: 6.00 Build 0)  -->
<svg version="1.1" id="Слой_1" xmlns="http://www.w3.org/2000/svg" xmlns:xlink="http://www.w3.org/1999/xlink" x="0px" y="0px"
	 viewBox="0 0 512 512" style="enable-background:new 0 0 512 512;" xml:space="preserve">
<style type="text/css">
	.st0{fill:none;stroke:#000000;stroke-width:5;stroke-miterlimit:10;}
</style>
<g>
	<path class="st0" d="M411.66,396.4H97.97c1.37-11.51,8.48-60.58,51.53-96.28c29.74-24.66,61.57-30.43,75.49-32.09
		c-0.33-6.51-0.67-13.02-1-19.53c-32.74-14.44-53.93-44.57-53.69-75.85c0.24-31.28,21.88-59.24,50.54-72.12
		c13.55-6.09,28.68-8.8,43.85-6.91c8.73,1.09,17.17,3.67,25.03,7.46c29.24,14.07,50.34,44.81,47.82,77.44
		c-3.06,39.58-39.25,61.17-42.94,63.29c0.15,7.84,0.3,15.67,0.45,23.5c13.48,2.81,45.43,11.37,73.68,39.33
		C404.96,340.51,410.51,383.95,411.66,396.4z"/>
	<path class="st0" d="M481.75,396.4h-70.09c-1.15-12.46-6.7-55.9-42.94-91.76c-28.25-27.96-60.2-36.52-73.68-39.33
		c-0.15-7.83-0.3-15.66-0.45-23.5c3.69-2.12,39.89-23.71,42.94-63.29c2.52-32.63-18.58-63.37-47.82-77.44
		c13.86-6.48,29.43-9.41,45.06-7.46c41.21,5.15,76.04,43.49,72.84,84.9c-3.05,39.58-39.25,61.17-42.94,63.29
		c0.15,7.84,0.3,15.67,0.45,23.5c13.48,2.81,45.43,11.37,73.67,39.33C475.05,340.51,480.6,383.95,481.75,396.4z"/>
	<path class="st0" d="M224.99,268.03c-13.92,1.66-45.74,7.43-75.49,32.09c-43.05,35.7-50.17,84.77-51.53,96.28H30.25
		c1.37-11.51,8.48-60.58,51.53-96.28c29.74-24.66,61.57-30.43,75.49-32.09c-0.34-6.51-0.67-13.02-1-19.53
		c-32.75-14.44-53.93-44.57-53.69-75.85c0.35-46.08,47.13-84.94,94.39-79.03c8.3,1.03,16.34,3.42,23.87,6.91
		c-28.66,12.88-50.3,40.84-50.54,72.12c-0.24,31.28,20.95,61.41,53.69,75.85C224.32,255.01,224.65,261.52,224.99,268.03z"/>
</g>
</svg>
