<?xml version="1.0" encoding="utf-8"?>
<!-- Generator: Adobe Illustrator 25.2.1, SVG Export Plug-In . SVG Version: 6.00 Build 0)  -->
<svg version="1.1" id="Слой_1" xmlns="http://www.w3.org/2000/svg" xmlns:xlink="http://www.w3.org/1999/xlink" x="0px" y="0px"
	 viewBox="0 0 79 79" style="enable-background:new 0 0 79 79;" xml:space="preserve">
<style type="text/css">
	.st0{fill:none;stroke:#538680;stroke-width:3;stroke-miterlimit:10;}
	.st1{fill:none;stroke:#000000;stroke-miterlimit:10;}
</style>
<path class="st0" d="M64.68,30.09c0.74,0.73,1.03,1.53,1.15,1.91c0,2.77,0,5.53,0,8.3c-0.16,0.46-0.52,1.28-1.28,2.04
	c-0.87,0.88-1.82,1.25-2.3,1.4c-5.21,0-10.42,0-15.64,0c0,5.15,0,10.3,0,15.45c-0.13,0.48-0.43,1.4-1.22,2.3
	c-0.75,0.86-1.59,1.28-2.04,1.47c-2.72,0-5.45,0-8.17,0c-0.38-0.09-1.42-0.37-2.3-1.34c-0.82-0.91-1.03-1.91-1.08-2.3
	c0-5.19,0-10.39,0-15.58c-5.13,0-10.26,0-15.38,0c-0.38-0.05-1.55-0.27-2.55-1.27c-1.01-1.01-1.22-2.18-1.28-2.55
	c0-2.64,0-5.28,0-7.91c0-0.2,0.03-1.4,1.02-2.3c1.12-1.02,2.52-0.79,2.68-0.76c5.17,0,10.34,0,15.51,0c0-5.41,0-10.81,0-16.22
	c0.18-0.44,0.57-1.21,1.34-1.91c0.62-0.56,1.25-0.86,1.66-1.02c2.77-0.02,5.53-0.04,8.3-0.06c0.43,0.11,1.33,0.41,2.17,1.21
	c0.87,0.82,1.21,1.74,1.34,2.17c0,5.28,0,10.56,0,15.83c5.34,0,10.68,0,16.02,0C63.03,29.04,63.89,29.31,64.68,30.09z"/>
<path class="st1" d="M30.21,27.02c0.13-5.02,0.26-10.04,0.38-15.06c0.06-0.37,0.34-1.68,1.53-2.68c0.97-0.82,2.02-0.98,2.43-1.02
	C37.7,8.13,40.85,8,44,7.87c0.55,0.19,1.69,0.66,2.68,1.79c0.77,0.87,1.11,1.76,1.28,2.3c0.17,5.15,0.34,10.3,0.51,15.45
	c4.94,0.04,9.87,0.09,14.81,0.13c0.4,0.03,1.42,0.15,2.43,0.89c0.99,0.74,1.39,1.66,1.53,2.04c0.04,3.15,0.09,6.3,0.13,9.45
	c-0.12,0.6-0.45,1.78-1.4,2.94c-1.08,1.3-2.36,1.84-2.94,2.04c-4.94,0.09-9.87,0.17-14.81,0.26c-0.04,4.72-0.09,9.45-0.13,14.17
	c-0.21,0.66-0.63,1.73-1.53,2.81c-0.92,1.11-1.94,1.73-2.55,2.04c-3.19,0.04-6.38,0.09-9.57,0.13c-0.57-0.24-1.45-0.69-2.3-1.53
	c-1.11-1.1-1.58-2.3-1.79-2.94c0.04-4.85,0.09-9.7,0.13-14.55c-5.23-0.09-10.47-0.17-15.7-0.26c-0.59-0.3-1.66-0.95-2.55-2.17
	c-0.68-0.93-0.99-1.83-1.15-2.43c0.04-3.45,0.09-6.89,0.13-10.34c0.16-0.4,0.55-1.22,1.4-1.91c0.92-0.75,1.87-0.96,2.3-1.02
	C20,27.11,25.11,27.06,30.21,27.02z"/>
</svg>
