<?xml version="1.0" encoding="utf-8"?>
<!-- Generator: Adobe Illustrator 25.2.1, SVG Export Plug-In . SVG Version: 6.00 Build 0)  -->
<svg version="1.1" id="Слой_1" xmlns="http://www.w3.org/2000/svg" xmlns:xlink="http://www.w3.org/1999/xlink" x="0px" y="0px"
	 viewBox="0 0 512 512" style="enable-background:new 0 0 512 512;" xml:space="preserve">
<style type="text/css">
	.st0{fill:none;stroke:#538680;stroke-width:10;stroke-miterlimit:10;}
</style>
<g>
	<path class="st0" d="M153.71,95.18c-22.42-0.83-43.13,20.27-41.92,42.51c1.08,19.8,19.03,31.15,20.96,32.34
		c-4.39,8.78-8.78,17.56-13.17,26.35c-3.43-0.23-20.7-1.05-33.53,11.38c-14.91,14.44-17.65,40.78-3.59,57.49
		c14.61,17.36,38.67,14,40.12,13.77c2.79,7.19,5.59,14.37,8.38,21.56c-2.14,1.69-19.17,15.65-18.56,37.72
		c0.55,19.88,15.23,40.31,36.53,43.11c22.86,3.01,38.63-16.24,39.52-17.37c9.18,3.39,18.36,6.79,27.54,10.18
		c-0.44,2.43-3.64,21.97,9.58,35.93c14.19,14.99,39.95,15.74,55.69,2.4c16.18-13.72,14-35.72,13.77-37.72
		c9.18-3.99,18.36-7.98,27.54-11.98c2.06,2.33,15.4,16.93,35.33,16.17c19.71-0.75,40.88-16.33,41.32-37.13
		c0.42-19.8-18.21-32.27-19.71-33.24c4.17-9.68,8.35-19.35,12.52-29.03c2.53,0.31,23.84,2.56,37.72-12.57
		c14.96-16.32,14.07-44.96-2.4-59.28c-13.53-11.76-31.75-8.79-34.71-8.27c-3.52-10.21-7.05-20.43-10.57-30.64
		c3.09-2.47,14.5-12.17,15.94-27.56c1.96-20.89-15.29-43.38-37.13-44.31c-20.11-0.85-33.07,17.04-34.13,18.56
		c-10.03-3.8-20.06-7.6-30.09-11.39c0.48-3.83,2.25-21.34-9.43-34.71c-14.58-16.69-44.87-20.9-59.88-4.79
		c-13.53,14.53-7.04,37.41-6.59,38.92c-11.18,4.39-22.36,8.78-33.53,13.17C186.25,115.08,174.43,95.95,153.71,95.18z"/>
	<ellipse class="st0" cx="256" cy="238.26" rx="58.98" ry="63.77"/>
</g>
</svg>
