<?xml version="1.0" encoding="utf-8"?>
<!-- Generator: Adobe Illustrator 25.2.1, SVG Export Plug-In . SVG Version: 6.00 Build 0)  -->
<svg style="enable-background:new 0 0 512 512;" id="Слой_1" version="1.1" viewBox="0 0 512 512" x="0px" xmlns="http://www.w3.org/2000/svg" y="0px" xml:space="preserve">
<style type="text/css">
	.st0{fill:none;stroke:#000000;stroke-width:10;stroke-miterlimit:10;}
</style>
<path class="st0" d="M160.47,235.98c-25.82-25.5-51.64-51.01-77.51-76.46c-1.65-2.15-7.18-10.1-6.56-21.31
	c0.47-9.17,4.82-15.49,6.64-17.85c14.89-17.25,29.77-34.5,44.66-51.75c3.72-1.96,11.83-5.65,22.69-5.28
	c8.39,0.24,14.77,2.85,18.45,4.62c27.99,24.56,55.98,49.13,83.97,73.69c24.63-25.84,49.27-51.59,73.9-77.43
	c2.14-1.96,7.81-6.74,16.71-8.41c8.8-1.56,15.62,0.88,18.32,2.02c16.8,15.36,33.66,30.67,50.46,46.03
	c2.57,3.6,7.16,11.17,8.58,21.91c1.51,12.12-1.97,21.54-3.78,25.58c-23.95,26.49-47.9,52.87-71.85,79.36
	c24.68,23.55,49.37,47.19,74.06,70.74c2.44,4.37,6.01,11.87,7.25,21.96c1.3,10.34-0.47,18.78-1.85,23.53
	c-15.56,17.01-31.07,34.08-46.63,51.09c-4.08,1.82-10.81,4.23-19.44,4.56c-11.29,0.41-19.94-3.04-24.35-5.1
	c-25.37-24.19-50.69-48.43-76.06-72.62c-26.33,27.13-52.66,54.36-78.99,81.48c-4.5,1.63-13.21,4.05-24.05,2.72
	c-8.26-1.01-14.54-3.83-18.5-5.95c-17.99-17.27-35.88-34.54-53.87-51.8c-1.32-2.82-3.71-8.93-3.15-16.82
	c0.59-8.56,4.18-14.6,5.99-17.17C110.47,290.25,135.46,263.07,160.47,235.98z"/>
</svg>
