<?xml version="1.0" encoding="utf-8"?>
<!-- Generator: Adobe Illustrator 25.2.1, SVG Export Plug-In . SVG Version: 6.00 Build 0)  -->
<svg version="1.1" id="Слой_1" xmlns="http://www.w3.org/2000/svg" xmlns:xlink="http://www.w3.org/1999/xlink" x="0px" y="0px"
	 viewBox="0 0 512 512" style="enable-background:new 0 0 512 512;" xml:space="preserve">
<style type="text/css">
	.st0{fill:none;stroke:#000000;stroke-width:30;stroke-miterlimit:10;}
</style>
<g>
	<g>
		<path class="st0" d="M111.13,417.49c0,5.52,4.48,10,10,10h270.55c5.52,0,10-4.48,10-10V93.83c0-5.52-4.48-10-10-10H121.13
			c-5.52,0-10,4.48-10,10V417.49z"/>
	</g>
</g>
<g>
	<path d="M195.97,217.64c-12.76-4.63-18.02-36.7-7.7-59.02c12.66-27.37,48.6-39.81,77.72-35.92c40.31,5.37,75.6,43.07,70.75,69.65
		c-5,27.41-49.35,24.62-72.58,63.42c-15.7,26.21-13.31,57.32-7.7,81.75c-7.94-0.49-15.89-0.98-23.83-1.47
		c-7.37-26.01-11.22-58.1,4.76-83.58c20.82-33.2,60.5-31.57,65.98-58.66c4.1-20.25-12.56-48.34-38.49-54.99
		c-23.45-6.01-50.53,6.53-56.09,23.46c-5.93,18.04,14.5,35.18,5.5,48.39C210.3,216.53,201.8,219.76,195.97,217.64z"/>
	<path d="M233.36,350.35c7.03-4,15.84-3.86,22.73,0c5.16,2.9,12.6,9.75,11.36,17.23c-1.48,8.96-14.47,13.19-23.46,12.83
		c-8.18-0.32-20.42-4.73-21.63-13.57C221.35,359.41,228.71,352.99,233.36,350.35z"/>
</g>
</svg>
